<?xml version="1.0" encoding="UTF-8" standalone="no"?>
<!DOCTYPE svg PUBLIC "-//W3C//DTD SVG 1.1//EN" "http://www.w3.org/Graphics/SVG/1.1/DTD/svg11.dtd">
<svg width="100%" height="100%" viewBox="0 0 1440 900" version="1.1" xmlns="http://www.w3.org/2000/svg" xmlns:xlink="http://www.w3.org/1999/xlink" xml:space="preserve" xmlns:serif="http://www.serif.com/" style="fill-rule:evenodd;clip-rule:evenodd;stroke-linecap:round;stroke-linejoin:round;stroke-miterlimit:1.5;">
    <path d="M926.294,223.132L958,242L923.882,256.044L926.294,223.132Z"/>
    <path d="M487.757,620.196C424.574,473.976 765.036,241.886 931.671,240.071" style="fill:none;stroke:black;stroke-width:11px;"/>
    <g transform="matrix(1,0,0,1,-42,16.7318)">
        <g transform="matrix(1,-0,-0,1,42,-16.7318)">
            <path d="M380.412,132.103L367,97.732L402.544,107.624L380.412,132.103Z"/>
            <path d="M461.808,638.255C364.669,533.197 439.166,201.081 386.583,115.437" style="fill:none;stroke:black;stroke-width:11px;"/>
        </g>
    </g>
    <g transform="matrix(1,0,0,1,-69,27.9665)">
        <g transform="matrix(1,-0,-0,1,69,-27.9665)">
            <path d="M100.589,554.67L68,571.967L73.716,535.517L100.589,554.67Z"/>
            <path d="M434.808,649.49C322.582,547.767 157.827,468.411 83.322,550.468" style="fill:none;stroke:black;stroke-width:11px;"/>
        </g>
    </g>
    <g transform="matrix(0.985662,0.168729,-0.168729,0.985662,25.4814,-196.69)">
        <path d="M1054,193C1054,185.273 1047.73,179 1040,179L1012,179C1004.27,179 998,185.273 998,193L998,373.245C998,380.972 1004.27,387.245 1012,387.245L1040,387.245C1047.73,387.245 1054,380.972 1054,373.245L1054,193Z" style="fill:white;stroke:black;stroke-width:11px;"/>
    </g>
    <g transform="matrix(0.57124,0.820783,-0.820783,0.57124,145.282,-357.364)">
        <path d="M1054,193C1054,185.273 1047.73,179 1040,179L1012,179C1004.27,179 998,185.273 998,193L998,373.245C998,380.972 1004.27,387.245 1012,387.245L1040,387.245C1047.73,387.245 1054,380.972 1054,373.245L1054,193Z" style="fill:white;stroke:black;stroke-width:11px;"/>
    </g>
</svg>
